<svg width="111" height="86" viewBox="0 0 111 86" fill="none" xmlns="http://www.w3.org/2000/svg">
<path d="M1 83.5483V84.5483H2H37.4545H38.4545V83.5483V59.3949C38.4545 50.7798 39.7318 42.996 42.2703 36.0315C44.9044 29.0082 48.2703 22.2764 52.3692 15.8352L52.9243 14.9629L52.034 14.4372L31.2044 2.13889L30.6002 1.78211L30.0591 2.22904C24.8822 6.50566 20.0948 11.8207 15.6927 18.1627C11.288 24.5085 7.74073 31.2667 5.05231 38.4358C2.35591 45.6262 1 52.6882 1 59.6165V83.5483ZM56.9517 83.5483V84.5483H57.9517H93.4062H94.4062V83.5483V59.3949C94.4062 50.78 95.6835 42.9963 98.2219 36.0319C100.856 29.0085 104.222 22.2765 108.321 15.8352L108.876 14.9629L107.986 14.4372L87.1562 2.13889L86.5519 1.78211L86.0108 2.22904C80.8339 6.50566 76.0465 11.8207 71.6444 18.1627C67.2397 24.5085 63.6924 31.2667 61.004 38.4358C58.3076 45.6262 56.9517 52.6882 56.9517 59.6165V83.5483Z" stroke="#4E6BE5" stroke-width="2"/>
</svg>
